<svg id="Calque_1" data-name="Calque 1" xmlns="http://www.w3.org/2000/svg" viewBox="0 0 238.07 238.26"><defs><style>.cls-1{fill:#97311a;}.cls-2{fill:#d44523;}.cls-3{fill:#d44a26;}.cls-4{fill:#a1391f;}.cls-5{fill:#cc4021;}.cls-6{fill:#9c3b1f;}.cls-7{fill:#c84423;}.cls-8{fill:#cc3e20;}.cls-9{fill:#bb3b1f;}.cls-10{fill:#a53a20;}.cls-11{fill:#9f3a21;}.cls-12{fill:#d94f28;}.cls-13{fill:#aa3b20;}.cls-14{fill:#b73e21;}.cls-15{fill:#bf4425;}.cls-16{fill:#b23d21;}.cls-17{fill:#9c331c;}.cls-18{fill:#922d18;}.cls-19{fill:#a34324;}.cls-20{fill:#be3d21;}.cls-21{fill:#b23f23;}.cls-22{fill:#ad3f23;}.cls-23{fill:#faf8f8;}.cls-24{fill:#e4dedd;}.cls-25{fill:#e8e4e3;}.cls-26{fill:#cd4424;}.cls-27{fill:#ce4d29;}.cls-28{fill:#c34223;}.cls-29{fill:#c44827;}</style></defs><title>terrset</title><path d="M191.15,310.17l-.28.29-2.36,2.43-7,10-2.71,11,0,3,0,12.95,0,7.07,0,12,0,30v56l1,8-1,4,0,2v1l0,8,0,2.06,0,2.94v19c-.85,7.25.22,14.05,4.73,20l4,6.08c6.17,7.82,14.92,11.34,24.21,11.67,18.6.66,37.23.11,55.85.06h16l21,0h3l10.95,0,1.07-.09,3.92,0,2.16-.16,2.84.13,13.06.15,2,0,1,0c12.64.07,25.31.82,37.89,0,14.85-.93,25.64-8.57,31.22-22.79.91-3,1.81-6,2.71-9,0-.66,0-1.32,0-2l0-1.05q0-9,0-18c0-3.66,0-7.31,0-11l-.07-1c0-1,.06-2,.08-3,0-3,.05-6,.07-9l-.06-4.95v-1.05c0-3,0-6,0-9q0-7.49,0-15v-7c0-1.66,0-3.32,0-5v-17l0-20,0-13.94v-7.05q0-7.49-.05-15c0-2.35-.05-4.71-.08-7.06,1-7.9-.85-15.15-4.88-21.92a29.59,29.59,0,0,0-16-13.93c-10.1-4-20.71-3.14-31.22-3.05a32.33,32.33,0,0,0-5.67,1.07,2.6,2.6,0,0,0-.87-.18l-1.14-.78-8,0-2,0-53,0-2.94,0-2,0h-18l-9,0-4.06.72h-9a71.26,71.26,0,0,0-7.69-.67c-4.45.08-8.9.49-13.35.75-6.68-.29-13.45-1.37-20-.61-4.47.52-8.65,3.6-13,5.54-.32.08-.63.17-.94.27Z" transform="translate(-178.57 -301.87)"/><path class="cls-1" d="M183.57,522c-4.51-6-5.58-12.79-4.73-20l7.93.89c.82-1.94-6.13-8.71,3.56-6.51,0,0,.16-1,.47-1.32.78-.74,1.6-1.71,2.55-1.91,3.81-.8,7.68-1.36,11.47-2-.5,5.18,1.47,6.78,6.84,5.27,3.5-1,8.91,1.61,11,5.74l1-4.15,20,12.2c.47,4.19,3.65,5,7,5.84,1.85.47,4.15,1,5.23,2.32,4.68,5.79,5.31,6.09,12.44,3.94.92-.27,2.15.5,3.23.79l0,1.15-16.77,5.63,13.52,3.1-.59,6.86c-18.62.05-37.25.6-55.85-.06-9.29-.33-18-3.85-24.21-11.67l4.29-3,.15-1.42Z" transform="translate(-178.57 -301.87)"/><path class="cls-2" d="M288.65,302.12l2,0,2.94,0,53,0-5.15,8.38,5.52.25.54,1.18-14.14,9.1c-5.05.13-10.16-.22-15.12.49-7.28,1.05-14.45,2.85-21.67,4.32-3.11-4.69-.77-8.95,1.47-13.1-5.52-2-5.52-2-11,3.43-3.58-2.71-11.19-2.53-8-9.26h6.57l.27,2.43,1.91-1.16-2.18-1.27Z" transform="translate(-178.57 -301.87)"/><path class="cls-3" d="M181.53,322.91l7-10,2.36-2.43.28-.28,2.5-2.07c.31-.1.62-.19.94-.27l12,4.06c-.24,1.18-.5,2.36-.72,3.55-.43,2.33-.26,4.3,2.78,4.5-1.18,3-2.46,6-3.41,9.05-.14.46,1.3,2,2,2,3.14,0,6.29-.39,9.15-.61-.24,3.77-.46,7.28-.68,10.79-10.79,9.43-19.5,20.19-22.23,34.77-1.19-.5-2.4-.95-3.56-1.51-3.72-1.82-7.41-3.68-11.12-5.52l0-12c3.34,0,7.3,1.93,8-2.51l-2.08-5.53c1.41-.36,3.17-.33,4.18-1.18,3.07-2.58,9.23-.74,9.8-6.83l2-4c0-.32,0-.64,0-1-3.54-6.7-3.18-8.26,2.68-13.32l-7.64,1.26c-3.46-1.3-6.53-.87-9,2h0Zm22.58,17.36c3.36-3.73,2.89-5.11-2.08-6.68Z" transform="translate(-178.57 -301.87)"/><path class="cls-4" d="M341.64,539.79l-13.06-.15-2.84-.13-2.16.16-2.94-.78,4-1,2.94-2c.73-.89,1.52-1.74,2.2-2.66,3.83-5.19,2.22-9.63-4-10.85-2.88-.57-5.86-.68-8.72-1.34-.7-.17-1.07-1.7-1.6-2.61l6.16-1.42,1.95-.28c12.43-3.06,23.8-8.51,34.53-15.38.17.85.34,1.68.52,2.53l-.45-2.61,3.67-3.27,4.7,6.57-2.61,5c2.3,3,7.82,3,6.71,8.31v0l-1,1.06-1.85,1-1.36.88,1.18,1,0,1-5,4a6.17,6.17,0,0,0-2.53-.53c-.66-1-1-1.37-1.3-1.78l-.47.48c.4.32.81.64,1.77,1.3a27.83,27.83,0,0,0,.54,6.34c-4.76-.55-8.64-1.22-12.53-1.37-2.06-.08-4.42,1.57-6.19,1-5.52-1.75-6.07-1.46-5.25,5.1,1.77-.37,3.5-.81,5.26-1.09,2.73-.43,3.88.53,2.75,3.33l-1,0-.78-1.12Zm5.4-15.28,1.4,1.47,2.3-2.34-1.24-1.27Zm14.76-.88-.4,0,.23.61c.1-.08.27-.15.3-.25S361.85,523.76,361.8,523.63Zm-20.27,2-.26.3.59.27c0-.13.09-.3,0-.39S341.66,525.67,341.53,525.61ZM335,527.84l-.3-.26-.27.59c.13,0,.3.09.39,0S334.91,528,335,527.84Z" transform="translate(-178.57 -301.87)"/><path class="cls-1" d="M416.45,486.93q0,9,0,18c-4.56.18-9.12.29-13.66.65-.46,0-.8,1.56-1.2,2.39-.07.27-.15.53-.23.79l.24-.78c4.16,3.69-1.22,4.12-1.83,5.46,1.16,1.59,2,2.94,3.05,4.12a29,29,0,0,0,2.81,2.48c-2.46,2.77-5.39,2.42-9-1-1.45-4.5-3.28-5.08-10.52-3.24-2.41-4.94-7-4.7-12.12-4.58a35.76,35.76,0,0,1,4.81-8.1c4-5.09,4.68,2.46,8.36,2.23L384.64,500l3.08-.66-.76-1.36-2.33,2-5.46-3.44c.15-2.1.29-3.89.42-5.68q2.55-2.91,5.11-5.81l7.93-.05,5,6.89c1.62-2.25,2.48-4.63,3.79-4.92s3.14,1.44,4.55,2.53c2.38,1.84,4.48,2.61,6.85-.08C413.77,488.32,415.23,487.73,416.45,486.93ZM394.6,510.37l1.45,1.1,2.14-3.12-1.38-1Z" transform="translate(-178.57 -301.87)"/><path class="cls-5" d="M358.64,303.07a32.33,32.33,0,0,1,5.67-1.07c10.51-.09,21.12-.92,31.22,3.05a29.59,29.59,0,0,1,16,13.93c-1.94,2.26-4,3.49-6.52.76.42-.59.85-1.18,1.75-2.4-6.67,1.05-11.7-.35-13.79-3.84l-5.24,4.24,3.48,1.49-8.5,2.72,0,0-.76-1.22L380.62,322l-4-2v-3.37l-5-.64-.76-1.3-.59.52,1.35.79c-1.9,2.62.58,3.05,2,4-.57,2-1.14,4-1.73,6L366.64,323l0-1-.92-3c-1.31-.36-2.72-1.23-3.91-1-7.3,1.51-7.28,1.59-10.14-5.08l2-1C361,310.21,361.72,308.89,358.64,303.07Z" transform="translate(-178.57 -301.87)"/><path class="cls-6" d="M396.66,519c3.62,3.47,6.55,3.82,9,1a41.64,41.64,0,0,0,4.33-1.12,35.37,35.37,0,0,0,3.79-1.91c-5.58,14.22-16.37,21.86-31.22,22.79-12.58.78-25.25,0-37.89,0,1.13-2.8,0-3.76-2.75-3.33-1.76.28-3.49.72-5.26,1.09-.82-6.56-.27-6.85,5.25-5.1,1.77.56,4.13-1.09,6.19-1,3.89.15,7.77.82,12.53,1.37-.41-2.76-.71-4.78-1-6.81l3,1c3,2.35,5.17,7.83,10.24,2.8.19-.19.89.2,1.35.2a30.33,30.33,0,0,0,5-.09c4.32-.72,8.61-5.16,12.7.57,1.68-4.38.74-5.87-2.81-5.52-2.13.21-4.31,0-6.46,0,0-.71-.08-1.42-.11-2.14l6.06-.85,2.34-1-1.37-2h0c.34-3.3,2-3.16,4.2-1.61A31.34,31.34,0,0,0,396.66,519Z" transform="translate(-178.57 -301.87)"/><path class="cls-2" d="M208.66,320c-3-.2-3.21-2.17-2.78-4.5.22-1.19.48-2.37.72-3.55-.22-.78-.43-1.56-.77-2.81,5.06,1.34,7.66-6.95,13.54-2.83l-2,3.14h6.89l3.85-5.36,3.09,4.55c2.78-5.24-.18-5.66-3.69-5.68,4.45-.26,8.9-.67,13.35-.75a71.26,71.26,0,0,1,7.69.67l8,5.12c-.31.67-.61,1.35-.91,2l-1,0c-2.2-2.31-4.14-3.35-5,1q-2.49,4-5,8l-.06.06-8.4,1.63.27,1.84,9.5.59-17.11,9.39c-2.2-1.84-5.56-3.26-3.71-7,.69-1.39,2.59-2.17,5-4.06-2.75-.49-6.66-2.23-7.72-1.16-2.68,2.72-5,1.51-7.61,1.05C212.76,320.92,210.71,320.4,208.66,320Zm9.57-4.19-1.4-.22-1.56,3.53,4.59,1.88ZM213,311c-.07-.12-.1-.31-.2-.36s-.27.05-.41.09l.33.58Z" transform="translate(-178.57 -301.87)"/><path class="cls-7" d="M416.44,348q0,7.5.05,15c-.62,1.66-1.23,3.33-1.85,5h0L409.07,365c-2.5-1.32-4.81-2.11-5.43,1.91h0L391.33,369a96,96,0,0,0-17.76-25.92l3-2.17c3.5-.31,7.26-2.92,10.32,1.21.13.18,1.8-.78,2.75-1.21h2c1,.28,2.39,1.14,3,.76,3-2,4,0,5.36,2.25l-4.54,3.85.55.92,9.66-2.8C407.56,350.69,409.36,351,416.44,348Z" transform="translate(-178.57 -301.87)"/><path class="cls-8" d="M285.64,306.94h-6.57c-3.18,6.73,4.43,6.55,8,9.26,5.5-5.46,5.5-5.46,11-3.43-2.24,4.15-4.58,8.41-1.47,13.1l-15,4.06c.31-1.84.62-3.67,1.15-6.78-2.45,1.43-4.57,2-5.34,3.38-.43.77,1.37,2.8,2.16,4.25l-12,4.06-2-.92c-.16-2.57-.87-4.41-4-3l-3-2,4.1-6.79-.17-3.05.11-.3,3.59-6.28-2.6-3.1h6.94v-7.31h18l-3,4.82Z" transform="translate(-178.57 -301.87)"/><path class="cls-4" d="M223.64,498l-1,4.15c-2.08-4.13-7.49-6.73-11-5.74-5.37,1.51-7.34-.09-6.84-5.27-3.79.63-7.66,1.19-11.47,2-.95.2-1.77,1.17-2.55,1.91-.31.3-.43,1.33-.47,1.32-9.69-2.2-2.74,4.57-3.56,6.51l-7.93-.89q0-9.51,0-19a13.53,13.53,0,0,0,2.56,1.78c1.51.62,3.28,1.58,4.68,1.26s2.51-2,3.58-3l-10.85-3,0-2.06,9.3-.64,2.7-5,1.07.4-.54,4,3.3-.82,1.25,5.46,3.1-4.53.65,1.19,7.33-2.2Z" transform="translate(-178.57 -301.87)"/><path class="cls-9" d="M391.33,369l12.31-2.1,2.3,2.1.79-1.58-3.09-.51c.62-4,2.93-3.23,5.43-1.91l5.57,2.91c.62-1.68,1.23-3.35,1.85-5V370l-5.72,3c.33,2.83.63,5.42,1,8.64l4.69,2.31,0,20c-2.7-1-7-1.32-7.76-3.1-1.47-3.65-3.81-2.66-6.16-2.87C396.05,389.41,395.14,378.66,391.33,369ZM399,371c-.07-.12-.1-.31-.2-.36s-.26.06-.4.09l.33.57Z" transform="translate(-178.57 -301.87)"/><path class="cls-3" d="M405.61,345.93l-9.66,2.8-.55-.92,4.54-3.85c-1.36-2.23-2.35-4.23-5.36-2.25-.57.38-1.95-.48-3-.76,4.26-1.83,8.11-4.06,9.25-8.32l-8.23-3.69c.21-1.45.41-2.89.62-4.34L391.5,324c-1,2-1.92,4-2.89,6l0,3-5-2V330c0-.7,0-1.41,0-2.11-.33-1.64-.65-3.28-1-4.93,0-.33,0-.66,0-1l8.5-2.72-3.48-1.49,5.24-4.24c2.09,3.49,7.12,4.89,13.79,3.84-.9,1.22-1.33,1.81-1.75,2.4,2.52,2.73,4.58,1.5,6.52-.76,4,6.77,5.92,14,4.88,21.92h-7.89L405.63,345c0,.33,0,.65,0,1Zm-.75-12.25-2.61.55c.34,1.64.67,3.27,1,4.91a12,12,0,0,0,2.47-.7A39,39,0,0,0,404.86,333.68Z" transform="translate(-178.57 -301.87)"/><path class="cls-10" d="M416.45,486.93c-1.22.8-2.68,1.39-3.61,2.45-2.37,2.69-4.47,1.92-6.85.08-1.41-1.09-3.27-2.81-4.55-2.53s-2.17,2.67-3.79,4.92l-5-6.89L398,479l-1.52-1.38-4.36,4-7-2c-.18-1.94-.37-3.92-.56-5.91l4-6.93,6.06-.91h0c.31,1.23.61,2.46.7,2.79l10.58-1.33c-1.22,2.39-2.43,4.79-4,7.82h9.91l.07-1.33-4.22-2.3c3.53-4.62,6.11-1.85,8.73.39,0,1-.05,2-.08,3l.07,1C416.44,479.62,416.45,483.27,416.45,486.93Z" transform="translate(-178.57 -301.87)"/><path class="cls-11" d="M267.64,539.78l.59-6.86-13.52-3.1,16.77-5.63,0-1.15c-1.08-.29-2.31-1.06-3.23-.79-7.13,2.15-7.76,1.85-12.44-3.94-1.08-1.33-3.38-1.85-5.23-2.32-3.34-.85-6.52-1.65-7-5.84,13.28,6.68,28.14,8.21,42,13l-6,3.36a17.47,17.47,0,0,0,.94,2.81c.94,1.93,2,3.77,3.09,5.65,0,1.61,0,3.22,0,4.83Z" transform="translate(-178.57 -301.87)"/><path class="cls-3" d="M351.64,313c2.86,6.67,2.84,6.59,10.14,5.08,1.19-.25,2.6.62,3.91,1,.31,1,.62,2,.92,3l0,1-6,10.07-27.19-12,14.14-9.1-.54-1.18-5.52-.25,5.15-8.38,2,0c0,.62.05,1.24.07,1.86l-.05,1.94,1,2c.32,1.33.65,2.66,1,4l1,1Z" transform="translate(-178.57 -301.87)"/><path class="cls-12" d="M198.64,340.92c-.57,6.09-6.73,4.25-9.8,6.83-1,.85-2.77.82-4.18,1.18l-5.83,1q0-6.48,0-12.95l9.4.7-2.59-6.52-6.78,2.8q1.35-5.51,2.71-11l5.11,3c2.51-2.91,5.58-3.34,9-2-.05,1.45.23,3-.22,4.33-1,3.09-2.74,6.13,2.12,7.56l-3,4.79Z" transform="translate(-178.57 -301.87)"/><path class="cls-10" d="M179.82,463l-1-8c7.32,1.6,6.83-5.28,9.34-8.55l5.85-1.55,7.74,20.9-8.36,2,3.81,1.62-.76,1-9.79-3.37.48-2.75Z" transform="translate(-178.57 -301.87)"/><path class="cls-6" d="M324.67,537.92l-4,1-1,.8-1.07.09-.95-2.84,1.7-.86-1.69-.15c-2.35-2-3.17-6.19-7.59-5.43-.3,0-1.16-.93-1.12-1.38.33-4.7-3.3-5.27-6.45-6.37l13-4.25c.53.91.9,2.44,1.6,2.61,2.86.66,5.84.77,8.72,1.34,6.23,1.22,7.84,5.66,4,10.85-.68.92-1.47,1.77-2.2,2.66Z" transform="translate(-178.57 -301.87)"/><path class="cls-7" d="M178.82,368.93c3.71,1.84,7.4,3.7,11.12,5.52,1.16.56,2.37,1,3.56,1.51-.27,1.76-.41,3.54-.84,5.26-1,3.92-2.11,7.81-3.18,11.72-3,0-5.88,0-7.24,3.65-.39,1.06-2.26,1.57-3.45,2.34Z" transform="translate(-178.57 -301.87)"/><path class="cls-13" d="M186.63,466.94l9.79,3.37.76-1-3.81-1.62,8.36-2L207,475.81l-7.33,2.2-.65-1.19-3.1,4.53-1.25-5.46-3.3.82.54-4-1.07-.4-2.7,5-9.3.64q0-4,0-8L182,471.3v-4.36Z" transform="translate(-178.57 -301.87)"/><path class="cls-14" d="M178.79,435.94q0-12,0-24l3.3-1.27,1.31,7.32,6.06-3,.39,7,.13,2.91.8,5.08a1.3,1.3,0,0,0,0,1l.1,1,.59,4Z" transform="translate(-178.57 -301.87)"/><path class="cls-15" d="M189.45,415l-6.06,3-1.31-7.32-3.3,1.27q0-6.51,0-13c1.19-.77,3.06-1.28,3.45-2.34,1.36-3.68,4.23-3.65,7.24-3.65Z" transform="translate(-178.57 -301.87)"/><path class="cls-16" d="M178.79,435.94H191.5l2.49,8.88-5.85,1.55c-2.51,3.27-2,10.15-9.34,8.55Z" transform="translate(-178.57 -301.87)"/><path class="cls-8" d="M227.55,302.91c3.51,0,6.47.44,3.69,5.68L228.15,304l-3.85,5.36h-6.89l2-3.14c-5.88-4.12-8.48,4.17-13.54,2.83.34,1.25.55,2,.77,2.81l-12-4.06c4.31-1.94,8.49-5,13-5.54C214.1,301.54,220.87,302.62,227.55,302.91Z" transform="translate(-178.57 -301.87)"/><path class="cls-17" d="M416.45,472c-2.62-2.24-5.2-5-8.73-.39l4.22,2.3-.07,1.33H402c1.54-3,2.75-5.43,4-7.82l-10.58,1.33c-.09-.33-.39-1.56-.7-2.79l3.09-.65-.8-1.36-2.28,2-6.06.91,4.24-5.87c5.42,1.44,10.64,4.83,15.55,2.16l1.25-4.17,6.88,4C416.5,466,416.48,469,416.45,472Z" transform="translate(-178.57 -301.87)"/><path class="cls-16" d="M402.57,398c2.35.21,4.69-.78,6.16,2.87.72,1.78,5.06,2.11,7.76,3.1v17l-5.78-7.56-4.92,3.55Q404.19,407.46,402.57,398Z" transform="translate(-178.57 -301.87)"/><path class="cls-18" d="M413.79,517a35.37,35.37,0,0,1-3.79,1.91,41.64,41.64,0,0,1-4.33,1.12,29,29,0,0,1-2.81-2.48c-1-1.18-1.89-2.53-3.05-4.12.61-1.34,6-1.77,1.83-5.46h0c.4-.83.74-2.35,1.2-2.39,4.54-.36,9.1-.47,13.66-.65l0,1.05-2,1,2,1C415.6,511,414.7,514,413.79,517Z" transform="translate(-178.57 -301.87)"/><path class="cls-13" d="M416.47,425.93v7l-1.83,2-.65.49.65-.48c.22,6.73-.26,7.37-6,8h0l-5.29-2.1L405.81,424Z" transform="translate(-178.57 -301.87)"/><path class="cls-4" d="M416.52,462.94l-6.88-4-8.12-12.34,1.32-4.68,5.8,1h0c1.35,7.4,1.71,7.63,7.85,5,0,3,0,6,0,9l-1.19,1,1.19.07Z" transform="translate(-178.57 -301.87)"/><path class="cls-19" d="M317.64,536.94l.95,2.84-10.95,0c1.21-2.59,1.62-4.91-2-5.86h0l-3.12-11.2h0c3.15,1.1,6.78,1.67,6.45,6.37,0,.45.82,1.43,1.12,1.38,4.42-.76,5.24,3.39,7.59,5.43C317.65,536.27,317.64,536.6,317.64,536.94Z" transform="translate(-178.57 -301.87)"/><path class="cls-2" d="M270.62,302.12v7.31h-6.94l2.6,3.1-3.59,6.28-2,.34v-.38q-.45-5.92-.92-11.86l4.25-1-2.35-3.86Z" transform="translate(-178.57 -301.87)"/><path class="cls-14" d="M416.47,425.93l-10.66-2c0-2.34,0-4.68,0-7l4.92-3.55,5.78,7.56C416.48,422.61,416.48,424.27,416.47,425.93Z" transform="translate(-178.57 -301.87)"/><path class="cls-19" d="M283.65,539.78c0-1.61,0-3.22,0-4.83l0,0c2.76,2.31,5.61,2.49,8.73.61.88-.53,2.15-.41,3.24-.59l10-1h0c-.33,1.95-.67,3.91-1,5.86Z" transform="translate(-178.57 -301.87)"/><path class="cls-20" d="M405.63,345l2.84-4.05h7.89c0,2.35.06,4.71.08,7.06-7.08,3.07-8.88,2.73-10.83-2h0c.08-.11.23-.22.21-.31A4.6,4.6,0,0,0,405.63,345Z" transform="translate(-178.57 -301.87)"/><path class="cls-8" d="M350.63,311.94c-.33-1.33-.66-2.66-1-4l1.11-1.23-2.11-.79c0-.65,0-1.3.05-1.94l7.94-1.05,1.13-.05a2.6,2.6,0,0,1,.87.18c3.08,5.82,2.33,7.14-5,8.88h-3Z" transform="translate(-178.57 -301.87)"/><path class="cls-21" d="M416.48,447.93c-6.14,2.65-6.5,2.42-7.85-5,5.75-.63,6.23-1.27,6-8h0l1.83-2Q416.47,440.45,416.48,447.93Z" transform="translate(-178.57 -301.87)"/><path class="cls-7" d="M416.45,383.93l-4.69-2.31c-.37-3.22-.67-5.81-1-8.64l5.72-3Z" transform="translate(-178.57 -301.87)"/><path class="cls-20" d="M178.83,349.9l5.83-1c.69,1.85,1.39,3.69,2.08,5.53-.65,4.44-4.61,2.47-8,2.51Z" transform="translate(-178.57 -301.87)"/><path class="cls-22" d="M178.8,480l10.85,3c-1.07,1-2.17,2.67-3.58,3s-3.17-.64-4.68-1.26a13.53,13.53,0,0,1-2.56-1.78Z" transform="translate(-178.57 -301.87)"/><path class="cls-2" d="M178.82,333.93l6.78-2.8,2.59,6.52-9.4-.7Z" transform="translate(-178.57 -301.87)"/><path class="cls-21" d="M186.63,466.94H182v4.36l-3.24-1.36v-1l0-2,1-4,7.29,1.23Z" transform="translate(-178.57 -301.87)"/><path class="cls-6" d="M183.57,522l8.45,1.65-.15,1.42-4.29,3Z" transform="translate(-178.57 -301.87)"/><path class="cls-7" d="M256.6,308l-8-5.12h9c0,.37,0,.73.05,1.09Z" transform="translate(-178.57 -301.87)"/><path class="cls-12" d="M257.64,303.91l-.05-1.09,4.06-.72L264,306l-4.25,1Z" transform="translate(-178.57 -301.87)"/><path class="cls-6" d="M304.63,539.81c.34-1.95.68-3.91,1-5.86,3.62.95,3.21,3.27,2,5.86Z" transform="translate(-178.57 -301.87)"/><path class="cls-2" d="M356.64,302.94,348.7,304c0-.62-.05-1.24-.07-1.86l8,0C356.63,302.39,356.64,302.67,356.64,302.94Z" transform="translate(-178.57 -301.87)"/><path class="cls-1" d="M416.5,507.94l-2-1,2-1C416.47,506.62,416.49,507.28,416.5,507.94Z" transform="translate(-178.57 -301.87)"/><path class="cls-8" d="M190.87,310.46l-2.36,2.43Z" transform="translate(-178.57 -301.87)"/><path class="cls-8" d="M193.65,308.11l-2.5,2.07Z" transform="translate(-178.57 -301.87)"/><path class="cls-6" d="M341.64,539.79l1.22-1.14.78,1.12Z" transform="translate(-178.57 -301.87)"/><path class="cls-18" d="M319.66,539.69l1-.8,2.94.78Z" transform="translate(-178.57 -301.87)"/><path class="cls-8" d="M293.62,302.13l-2.94,0Z" transform="translate(-178.57 -301.87)"/><path class="cls-17" d="M416.46,458l-1.19-.07,1.19-1Z" transform="translate(-178.57 -301.87)"/><path class="cls-18" d="M325.74,539.51l2.84.13Z" transform="translate(-178.57 -301.87)"/><path class="cls-13" d="M178.81,466.94l0,2Z" transform="translate(-178.57 -301.87)"/><path class="cls-17" d="M416.44,476l-.07-1Z" transform="translate(-178.57 -301.87)"/><path class="cls-5" d="M356.64,302.94c0-.27,0-.55,0-.83l1.14.78Z" transform="translate(-178.57 -301.87)"/><path class="cls-23" d="M405.79,416.94c0,2.34,0,4.68,0,7l-2.46,16.89-.51,1.09-1.32,4.68q-4.35,7.17-8.68,14.35l-4.24,5.87-4,6.93-7.05,7.91-15.65,16.39-3.67,3.27-.07.08c-10.73,6.87-22.1,12.32-34.53,15.38l-1.95.28-6.16,1.42-13,4.25h0l-1.88.38-6,0h-9c-13.87-4.77-28.73-6.3-42-13l-20-12.2L207,475.81l-5.26-10.08L194,444.83,191.5,436l-.59-4c.06-.11.19-.24.17-.33a5.52,5.52,0,0,0-.27-.67,1.3,1.3,0,0,1,0-1c3.11-2.23,1.87-3.77-.8-5.08l-.13-2.91c.6-1.6,1.74-3.21,1.7-4.8a136.48,136.48,0,0,1,4.42-38.9c4.38-16.48,13.24-29.08,27.26-37.85,11.08-6.94,23-12.5,34.56-18.75a16.64,16.64,0,0,0,2.88-2.53l2-.34-.11.3c.05,1,.11,2,.17,3.05l-4.1,6.79-4.22,2.89-1.11.36-11.71,5.67-9.09,4.78c-9.36,4.46-15.79,11.71-20,21l-10.05,22.17c-3.27,9.88-3.15,19.95-1.71,30.1l3.69,23.34q1.59,4.83,3.19,9.68l16.79,30,2.25,2.92,4.56,5.15,2.8,2.37.11.11a18.5,18.5,0,0,0,2,2.64c14.32,13.7,31.72,18.51,51,17.24,6.21-.41,12.37-1.57,18.55-2.39l21-5.25,1.4-.74,4.79-1.68c5.2-2.46,10.88-4.25,15.5-7.53,7.54-5.37,14.39-11.71,21.53-17.64h0l4-4.63,5-6.54c1.87-3.31,3-7.56,5.78-9.71,4-3.12,5.47-7.08,6.86-11.41q0-9,0-18-3.13-13.11-6.28-26.21l-8.59-22.8-9-14.95c-7-10.14-16.49-16.88-28-21l-14-2.93h-7l-17.11,1.45-6.89,2-7.06,1.33-22.89,9.43-10.07,6.7h0l-2.28,1.88L244.65,366q-3.15,3.88-6.32,7.76l-1.81,3a42.89,42.89,0,0,0-7.82,25.2l.09,9,1,7,5.79,19.19a77.44,77.44,0,0,0,18,27.95l5.21,5.56c2.47,6.71,8.68,9,14.41,11.16,12.58,4.79,25.67,4.6,38.83,2.56,18.86-2.93,33-13.51,44.92-27.57,6.23-7.37,12.2-15.23,13.17-25.29.64-6.58,2.27-13.52-2.37-19.56q-3-9-6-18L358,386.8l-1.27-1.91-.45-.93-2.56-3.3c-2.05-2.06-4.46-3.88-6.09-6.24-4-5.78-9.55-9.13-15.87-11.57L321.64,360c-19.47-3.15-36.23,2.56-50.76,15.55l-7.46,8.25-2.09,3L255.75,402q.1,11,.19,22c2.72,11.59,7.81,21.73,17.6,29,14.7,12.19,37.55,10.42,51.14-2l5.1-5a39.92,39.92,0,0,0,10.44-27.84c0-7.82-1.26-15.5-7.45-21.29-.6-.5-1.55-.89-1.74-1.5-1.93-6.39-7.16-9.07-12.83-10.24-14.61-3-29,6-33.26,20.34-3.37,11.27-.64,20.1,7.61,24.68,3.32,1.28,6.54,3.21,10,3.73,11.66,1.73,18.57-4.95,17-15.94-.9-1.71-1.81-3.41-2.71-5.11L314.77,407l9.91-.05a15.24,15.24,0,0,1,4.43,16.14c-1.58,5.44-4.47,10.5-6.79,15.73-4.71,4.79-9.71,9.52-17,9-6-.4-11.87-1.87-17.8-2.86-8.94-6-15.56-13.75-19.07-24l-.63-9c1-2,1.84-4.08,3-6,2.4-4.08,4.19-8.95,7.59-12,9.75-8.64,21.1-15.18,33.86-17.9,6.17-1.31,13,.42,19.51.77,7.54,4.23,12.29,11,16.66,18.16,6.9,16,5.69,31.53-2.32,46.76l-16,18.59-.1.1-2.43,1.44c-21.54,13.19-42.85,11.43-64-1-3.33-4.2-7-8.16-9.88-12.66s-4.81-9.52-7.17-14.32l-.41-1.45,0-.1-2.61-6.45-1.83-7c.25-1.77.61-3.54.71-5.33.41-6.88.73-13.77,1.08-20.66.73-1.09,1.25-2.46,2.23-3.24,11.26-8.95,22.05-18.64,34-26.51,19-12.52,39.72-14.94,61.23-6.14,1.48.61,3.22.56,4.84.81l9.63,6.57,1.19,1.15.1.31.31.06,9.74,12,10.95,26q1,9.49,2,19-1.53,10-3,20l-6.53,14.84-1.23,2.73-1.28,1.42q-2.67,3.45-5.35,6.88A99,99,0,0,1,334.62,488l-1.41.6.06-.12L328,490.64l-3.38,1.24-31,4.2a85.6,85.6,0,0,1-36.74-11.25l-12.1-9.22L229.64,458c-1.41-2.34-2.81-4.68-4.22-7-.93-1.65-1.86-3.29-2.78-4.94-1.07-2.68-2.13-5.37-3.19-8.05q-2.47-10.49-4.94-21c.37-2.91,1-5.82,1.07-8.74.47-16.11,5.7-30.6,14.91-43.68,8.88-12.6,21.62-20.46,35.67-25.36,16.29-5.68,33.25-9.43,49.84-14.28,11.1-3.25,21.29-.82,31.38,3.83,4.34,2,8.93,3.44,13.41,5.13l12.78,9.24A96,96,0,0,1,391.33,369c3.81,9.62,4.72,20.37,11.24,28.93Q404.19,407.47,405.79,416.94Z" transform="translate(-178.57 -301.87)"/><path class="cls-24" d="M360.79,333.88c-4.48-1.69-9.07-3.13-13.41-5.13-10.09-4.65-20.28-7.08-31.38-3.83-16.59,4.85-33.55,8.6-49.84,14.28-14.05,4.9-26.79,12.76-35.67,25.36-9.21,13.08-14.44,27.57-14.91,43.68-.09,2.92-.7,5.83-1.07,8.74a4,4,0,0,1-.84-.1q.09-8.62.16-17.26l.63-1.64c.19-1.62.37-3.24.55-4.86,2.68-10.7,6-21.13,12.61-30.18l11.07-11.87,25.12-14.6,3.82-1.63,12-4.06,2-.85,15-4.06c7.22-1.47,14.39-3.27,21.67-4.32,5-.71,10.07-.36,15.12-.49l27.19,12C360.68,333.31,360.74,333.6,360.79,333.88Z" transform="translate(-178.57 -301.87)"/><path class="cls-8" d="M285.64,306.94l2.18,1.27-1.91,1.16-.27-2.43Z" transform="translate(-178.57 -301.87)"/><path class="cls-25" d="M260.66,319.15a16.64,16.64,0,0,1-2.88,2.53c-11.53,6.25-23.48,11.81-34.56,18.75-14,8.77-22.88,21.37-27.26,37.85a136.48,136.48,0,0,0-4.42,38.9c0,1.59-1.1,3.2-1.7,4.8l-.39-7,0-22c1.07-3.91,2.19-7.8,3.18-11.72.43-1.72.57-3.5.84-5.26,2.73-14.58,11.44-25.34,22.23-34.77l13.14-8.76L246,323l4.58-4.87,5.06.63h2.94l2.11,0Z" transform="translate(-178.57 -301.87)"/><path class="cls-5" d="M228.87,332.43l-13.14,8.76c.22-3.51.44-7,.68-10.79-2.86.22-6,.61-9.15.61-.71,0-2.15-1.55-2-2,.95-3.07,2.23-6,3.41-9.05,2.05.45,4.1,1,6.18,1.34,2.58.46,4.93,1.67,7.61-1.05,1.06-1.07,5,.67,7.72,1.16-2.42,1.89-4.32,2.67-5,4.06C223.31,329.17,226.67,330.59,228.87,332.43Z" transform="translate(-178.57 -301.87)"/><path class="cls-8" d="M198.64,340.92l-4.09-.33,3-4.79c-4.86-1.43-3.15-4.47-2.12-7.56.45-1.32.17-2.88.22-4.33l7.64-1.26c-5.86,5.06-6.22,6.62-2.68,13.32-.08.1-.22.21-.21.3a4.15,4.15,0,0,0,.2.66Z" transform="translate(-178.57 -301.87)"/><path class="cls-8" d="M204.11,340.27,202,333.59C207,335.16,207.47,336.54,204.11,340.27Z" transform="translate(-178.57 -301.87)"/><path class="cls-12" d="M200.63,336.93a4.15,4.15,0,0,1-.2-.66c0-.09.13-.2.21-.3C200.64,336.29,200.63,336.61,200.63,336.93Z" transform="translate(-178.57 -301.87)"/><path class="cls-19" d="M388.65,522l-6.06.85c0,.72.07,1.43.11,2.14,2.15,0,4.33.17,6.46,0,3.55-.35,4.49,1.14,2.81,5.52-4.09-5.73-8.38-1.29-12.7-.57a30.33,30.33,0,0,1-5,.09c-.46,0-1.16-.39-1.35-.2-5.07,5-7.22-.45-10.24-2.8l5-4c4.4,1.13,6.52-1.39,8-5l0-.05,14,1h0C389.3,520,389,521,388.65,522Z" transform="translate(-178.57 -301.87)"/><path class="cls-19" d="M361.86,498.07l15.65-16.39c.61,2.21,1.47,3.69,4.24,2.38.68-.32,1.95.6,2.95.95q-2.56,2.89-5.11,5.81l-7.11,7.1-5.65,1.94,4.82,4.09c-2.4,5.91-2,7.2,2.93,10l0,0,1.05,3.92-.05.05h-4.95c1.11-5.28-4.41-5.3-6.71-8.31l2.61-5Z" transform="translate(-178.57 -301.87)"/><path class="cls-18" d="M370.66,518h4.95c-1.45,3.59-3.57,6.11-8,5l0-1,.18-1.93,1.85-1,1-1.06Z" transform="translate(-178.57 -301.87)"/><path class="cls-6" d="M347,524.51l2.46-2.14,1.24,1.27-2.3,2.34Z" transform="translate(-178.57 -301.87)"/><path class="cls-18" d="M324.67,537.92l2.94-2Z" transform="translate(-178.57 -301.87)"/><path class="cls-6" d="M361.8,523.63c.05.13.16.28.13.39s-.2.17-.3.25l-.23-.61Z" transform="translate(-178.57 -301.87)"/><path class="cls-6" d="M360.56,526.87l-2.23-1.76.47-.48Z" transform="translate(-178.57 -301.87)"/><path class="cls-6" d="M341.53,525.61c.13.06.31.08.37.18s0,.26,0,.39l-.59-.27Z" transform="translate(-178.57 -301.87)"/><path class="cls-6" d="M335,527.84c-.06.13-.08.31-.18.37s-.26,0-.39,0l.27-.59Z" transform="translate(-178.57 -301.87)"/><path class="cls-19" d="M358.19,501.34l.45,2.61h0l-.51-2.52Z" transform="translate(-178.57 -301.87)"/><path class="cls-19" d="M367.79,520l-.18,1.93-1.18-1Z" transform="translate(-178.57 -301.87)"/><path class="cls-6" d="M321.64,517.08l1.95-.28Z" transform="translate(-178.57 -301.87)"/><path class="cls-19" d="M370.66,518l-1,1.06Z" transform="translate(-178.57 -301.87)"/><path class="cls-18" d="M374.58,514c-5-2.82-5.33-4.11-2.93-10l5.13-2-1.33,1.09-3-5.14,7.11-7.1c-.13,1.79-.27,3.58-.42,5.68l5.46,3.44h0l2.55,5.32c-3.68.23-4.34-7.32-8.36-2.23a35.76,35.76,0,0,0-4.81,8.1c5.14-.12,9.71-.36,12.12,4.58,7.24-1.84,9.07-1.26,10.52,3.24a31.34,31.34,0,0,1-2.83-1.61c-2.24-1.55-3.86-1.69-4.2,1.61l-14-1c-.34-1.31-.69-2.61-1-3.92l.18-.21Z" transform="translate(-178.57 -301.87)"/><path class="cls-21" d="M384.7,485c-1-.35-2.27-1.27-2.95-.95-2.77,1.31-3.63-.17-4.24-2.38l7.05-7.91c.19,2,.38,4,.56,5.91l7,2,4.36-4L398,479,392.63,485Z" transform="translate(-178.57 -301.87)"/><path class="cls-18" d="M394.6,510.37l2.21-3,1.38,1-2.14,3.12Z" transform="translate(-178.57 -301.87)"/><path class="cls-18" d="M384.63,499.94l2.33-2,.76,1.36-3.08.66Z" transform="translate(-178.57 -301.87)"/><path class="cls-18" d="M401.64,508l-.24.78c.08-.26.16-.52.23-.79Z" transform="translate(-178.57 -301.87)"/><path class="cls-26" d="M360.79,333.88c-.05-.28-.11-.57-.18-.86l6-10.07,5.27,3.05c.59-2,1.16-4,1.73-6h3l4,2,2,0,0,0c0,.33,0,.66,0,1l-1,3-8.46,6,3.48,1L374,334.44c1,2.44,1.78,4.48,2.58,6.51l-3,2.17Z" transform="translate(-178.57 -301.87)"/><path class="cls-9" d="M376.63,320h-3c-1.42-1-3.9-1.39-2-4h0l5,.64Z" transform="translate(-178.57 -301.87)"/><path class="cls-9" d="M366.61,322c-.3-1-.61-2-.92-3C366,320,366.31,321,366.61,322Z" transform="translate(-178.57 -301.87)"/><path class="cls-3" d="M382.63,321.93l-2,0,1.25-1.24Z" transform="translate(-178.57 -301.87)"/><path class="cls-3" d="M351.57,311.94h2.05l-2,1h0Z" transform="translate(-178.57 -301.87)"/><path class="cls-9" d="M371.64,316l-1.35-.79.59-.52.76,1.3Z" transform="translate(-178.57 -301.87)"/><path class="cls-18" d="M388.65,522c.32-1,.65-2,1-3l1.37,2Z" transform="translate(-178.57 -301.87)"/><path class="cls-12" d="M250.56,318.17,246,323l-9.5-.59-.27-1.84,8.4-1.63.23.17-.17-.23q2.49-4,5-8l3,1C249.42,313.18,250.46,315.84,250.56,318.17Z" transform="translate(-178.57 -301.87)"/><path class="cls-18" d="M260.67,318.77l-2.11,0c-.95-2.94-1.91-5.89-2.87-8.83.3-.67.6-1.35.91-2,.34-1.35.69-2.69,1-4l2.11,3Q260.22,312.84,260.67,318.77Z" transform="translate(-178.57 -301.87)"/><path class="cls-7" d="M255.69,310c1,2.94,1.92,5.89,2.87,8.83h-2.94c-.33-2.95-.67-5.89-1-8.83l0,0Z" transform="translate(-178.57 -301.87)"/><path class="cls-8" d="M218.23,315.76l1.63,5.19-4.59-1.88,1.56-3.53Z" transform="translate(-178.57 -301.87)"/><path class="cls-7" d="M252.63,312l-3-1c.85-4.35,2.79-3.31,5-1l0,0Z" transform="translate(-178.57 -301.87)"/><path class="cls-8" d="M213,311l-.28.31-.33-.58c.14,0,.31-.14.41-.09S212.94,310.86,213,311Z" transform="translate(-178.57 -301.87)"/><path class="cls-26" d="M388.65,332.94c0-1,0-2,0-3l4-1,8.23,3.69c-1.14,4.26-5,6.49-9.25,8.32h-2l1-5Z" transform="translate(-178.57 -301.87)"/><path class="cls-27" d="M390.65,336l-1,5c-1,.43-2.62,1.39-2.75,1.21-3.06-4.13-6.82-1.52-10.32-1.21-.8-2-1.61-4.07-2.58-6.51l2.63-1.51Z" transform="translate(-178.57 -301.87)"/><path class="cls-3" d="M263.81,336.47l-25.12,14.6c1.09-5.12-2-7.16-6.17-8.42l9.09-4.78,1.42,3a54.23,54.23,0,0,0,6.28-.93c1.31-.37,3.16-1,3.54-2,.66-1.72.37-3.81.47-5.74l1.11-.36,7.22-.9c3.14-1.43,3.85.41,4,3Z" transform="translate(-178.57 -301.87)"/><path class="cls-3" d="M281.64,329.93l-2,.85c-.79-1.45-2.59-3.48-2.16-4.25.77-1.36,2.89-1.95,5.34-3.38C282.26,326.26,282,328.09,281.64,329.93Z" transform="translate(-178.57 -301.87)"/><path class="cls-12" d="M261.65,330.94l-7.22.9,4.22-2.89Z" transform="translate(-178.57 -301.87)"/><path class="cls-12" d="M263.81,336.47l1.85-2.55,2,.92Z" transform="translate(-178.57 -301.87)"/><path class="cls-25" d="M262.75,322.16c-.06-1-.12-2-.17-3.05C262.63,320.12,262.69,321.14,262.75,322.16Z" transform="translate(-178.57 -301.87)"/><path class="cls-7" d="M403.64,367l3.09.51-.79,1.58-2.3-2.1Z" transform="translate(-178.57 -301.87)"/><path class="cls-7" d="M399,371l-.27.3-.33-.57c.14,0,.3-.13.4-.09S398.94,370.85,399,371Z" transform="translate(-178.57 -301.87)"/><path class="cls-12" d="M390.65,336l-14-3-3.48-1,8.46-6,.06,1.95h.94l1-.06c0,.7,0,1.41,0,2.11l-2.36.3.06.63h2.3l5,2Z" transform="translate(-178.57 -301.87)"/><path class="cls-26" d="M404.86,333.68a39,39,0,0,1,.87,4.76,12,12,0,0,1-2.47.7c-.34-1.64-.67-3.27-1-4.91Z" transform="translate(-178.57 -301.87)"/><path class="cls-12" d="M392.64,328.94l-4,1c1-2,1.93-4,2.89-6l1.76.64C393.05,326.05,392.85,327.49,392.64,328.94Z" transform="translate(-178.57 -301.87)"/><path class="cls-5" d="M381.68,327.92l-.06-1.95,1-3c.32,1.65.64,3.29,1,4.93l-1,.06Z" transform="translate(-178.57 -301.87)"/><path class="cls-26" d="M383.63,330.91h-2.3l-.06-.63,2.36-.3Z" transform="translate(-178.57 -301.87)"/><path class="cls-7" d="M405.63,345a4.6,4.6,0,0,1,.2.67c0,.09-.13.2-.21.31C405.63,345.6,405.63,345.28,405.63,345Z" transform="translate(-178.57 -301.87)"/><path class="cls-19" d="M285.63,523.13h9a15.05,15.05,0,0,0-2.12,1.84c-2.77,3.48-8.17,4.63-8.87,9.95l0,0c-1-1.88-2.15-3.72-3.09-5.65a17.47,17.47,0,0,1-.94-2.81Z" transform="translate(-178.57 -301.87)"/><path class="cls-2" d="M348.65,305.93l2.11.79L349.65,308C349.32,307.27,349,306.6,348.65,305.93Z" transform="translate(-178.57 -301.87)"/><path class="cls-5" d="M351.57,311.94l.06,1-1-1Z" transform="translate(-178.57 -301.87)"/><path class="cls-4" d="M317.64,536.94c0-.34,0-.67,0-1l1.69.15Z" transform="translate(-178.57 -301.87)"/><path class="cls-25" d="M190,424.89c2.67,1.31,3.91,2.85.8,5.08C190.5,428.28,190.24,426.58,190,424.89Z" transform="translate(-178.57 -301.87)"/><path class="cls-25" d="M190.81,430.94a5.52,5.52,0,0,1,.27.67c0,.09-.11.22-.17.33Z" transform="translate(-178.57 -301.87)"/><path class="cls-21" d="M392.84,461q4.34-7.17,8.68-14.35L409.64,459l-1.25,4.17C403.48,465.8,398.26,462.41,392.84,461Z" transform="translate(-178.57 -301.87)"/><path class="cls-21" d="M394.66,465.93l2.28-2,.8,1.36-3.09.65Z" transform="translate(-178.57 -301.87)"/><path class="cls-21" d="M402.84,441.94l.51-1.09,5.29,2.1Z" transform="translate(-178.57 -301.87)"/><path class="cls-21" d="M414.64,435l-.65.48.65-.49Z" transform="translate(-178.57 -301.87)"/><path class="cls-6" d="M300.63,523.12l1.88-.38,3.12,11.2-10,1Q298.13,529,300.63,523.12Z" transform="translate(-178.57 -301.87)"/><path class="cls-1" d="M300.63,523.12q-2.49,5.91-5,11.83c-1.09.18-2.36.06-3.24.59-3.12,1.88-6,1.7-8.73-.61.7-5.32,6.1-6.47,8.87-9.95a15.05,15.05,0,0,1,2.12-1.84Z" transform="translate(-178.57 -301.87)"/><path class="cls-11" d="M226.65,482,224.4,479,236.66,482l1,2,1,2v2c-.12,4.12,2.39,5.62,6,6l5.87,3.77,5.77-4.42-6.66-1.34v-2l4.83.75c-2.7-4.22-1.49-5.87,2.43-5.86a85.6,85.6,0,0,0,36.74,11.25c-.82,5.42,1.81,7.72,9,7.86h0l3.05,3.12c-6.18.82-12.34,2-18.55,2.39-19.33,1.27-36.73-3.54-51-17.24a18,18,0,0,1-2-2.65,4.37,4.37,0,0,0,.18-.46l-.29.36-2.8-2.37,4.48-3.31Z" transform="translate(-178.57 -301.87)"/><path class="cls-10" d="M263.64,460.92c21.14,12.43,42.45,14.19,64,1l4,3h0a22.67,22.67,0,0,1-.88,3.11c-.6,1.35-1.41,2.6-2.12,3.89h2c0,.79.09,1.57.13,2.35-24.6,10.63-48.75,12.47-72-3.66l-5.21-5.56Z" transform="translate(-178.57 -301.87)"/><path class="cls-14" d="M346.13,441.79c8-15.23,9.22-30.79,2.32-46.76l6.2-2.09h2l5.08,1q3,9,6,18c.06,2.31.13,4.62.19,6.93.24,9-.31,17.8-6.19,25.31L355.56,439l-5.36,6.83Z" transform="translate(-178.57 -301.87)"/><path class="cls-15" d="M292.55,430.16c-8.25-4.58-11-13.41-7.61-24.68,4.28-14.32,18.65-23.36,33.26-20.34,5.67,1.17,10.9,3.85,12.83,10.24.19.61,1.14,1,1.74,1.5-2.13,2.57-4.56,4.33-8.13,3.06.35-1.73,1.22-3.56.9-5.15-.29-1.41-1.9-2.55-2.93-3.81l-5,3h0c-4.05-1.38-7.69-1.4-10,3h-2l-2-3c-5.06-3.49-7.7.29-11.09,3.68l3.25,1.31c-.51,1.07-1,2.14-1.77,3.75,3.21-.43,6.15-.93,5.61,3.3l-1,1-3.58-2.47c-2,4.34.54,5.08,3.56,5.47l3-3,3,1v2c-1.78,2.56-3.44,5.21-5.38,7.64-1.34,1.67-.95,5.12-4.72,4.62-.61-.08-1.92,1.85-2.16,3C292.05,426.78,292.46,428.5,292.55,430.16Zm4.77-17.38,0,.4L298,413c-.08-.1-.14-.28-.25-.3S297.46,412.73,297.32,412.78Z" transform="translate(-178.57 -301.87)"/><path class="cls-28" d="M270.88,375.58c14.53-13,31.29-18.7,50.76-15.55L316.33,368h4.32c0,.32,0,.64,0,1v2.9c-9.5-.53-17.54,4.05-25.93,7.44-.33-3.29-2-4.57-5.38-3.68.54,2.14,1,4,1.49,5.89l-1.2.5c-5.1-4.1-10.91-4.28-17-3Z" transform="translate(-178.57 -301.87)"/><path class="cls-13" d="M324.68,451c-13.59,12.4-36.44,14.17-51.14,2l4.25-5.22,1.06,1-1,5.36,1.41,1.15c2.31-1.78,4.86-3.34,6.8-5.46.55-.6-.68-2.83-1.11-4.41a1.51,1.51,0,0,1,.61-.27c.65-.09,1.32-.09,2-.13,5.93,1,11.83,2.46,17.8,2.86,7.25.49,12.25-4.24,17-9,.44,1.38.87,2.77,1.31,4.15Z" transform="translate(-178.57 -301.87)"/><path class="cls-10" d="M236.66,482,224.4,479l-16.79-30c1.93-.55,3.83-1.24,5.8-1.61,3.05-.57,6.15-.92,9.23-1.37.92,1.65,1.85,3.29,2.78,4.94l-15.25-1-.34,1.54c2.14.44,4.29.86,6.42,1.32,1.28.28,2.55.62,3.83.94l-2.43,3.2-.2-.18.17.21c3.89,1.81,7.67,4.84,12,1l15.16,17.66-6.15,1.6,3.95,1.89Z" transform="translate(-178.57 -301.87)"/><path class="cls-20" d="M320.64,368.91c0-.31,0-.63,0-1,0-.67,0-1.35,0-2h0l3.87-2.37-.42-.73h7.71c6.32,2.44,11.89,5.79,15.87,11.57,1.63,2.36,4,4.18,6.09,6.24l2.56,3.3.45.93L358,386.8l3.68,7.12-5.08-1c-.22-1-.43-1.92-.65-2.88l-1.08.17c-.09.9-.17,1.8-.25,2.7l-6.2,2.09c-4.37-7.13-9.12-13.93-16.66-18.16l-11.15-5.06v-1.89l1.68-.23v-.48Z" transform="translate(-178.57 -301.87)"/><path class="cls-14" d="M323.63,442.94c-.44-1.38-.87-2.77-1.31-4.15,2.32-5.23,5.21-10.29,6.79-15.73a15.24,15.24,0,0,0-4.43-16.14L321.45,404l5.11-1.46-1.92-2.64c3.57,1.27,6-.49,8.13-3.06,6.19,5.79,7.42,13.47,7.45,21.29A39.92,39.92,0,0,1,329.78,446Z" transform="translate(-178.57 -301.87)"/><path class="cls-16" d="M287.56,445c-.67,0-1.34,0-2,.13a1.51,1.51,0,0,0-.61.27c.43,1.58,1.66,3.81,1.11,4.41-1.94,2.12-4.49,3.68-6.8,5.46l-1.41-1.15,1-5.36-1.06-1L273.54,453c-9.79-7.29-14.88-17.43-17.6-29,3.77-2.73,8.05-3.32,12.55-3C272,431.21,278.62,439,287.56,445Z" transform="translate(-178.57 -301.87)"/><path class="cls-25" d="M361.75,444.17c5.88-7.51,6.43-16.31,6.19-25.31-.06-2.31-.13-4.62-.19-6.93,4.64,6,3,13,2.37,19.56-1,10.06-6.94,17.92-13.17,25.29-11.88,14.06-26.06,24.64-44.92,27.57-13.16,2-26.25,2.23-38.83-2.56-5.73-2.17-11.94-4.45-14.41-11.16,23.23,16.13,47.38,14.29,72,3.66l2-1.12,2.73-1.59C346.26,464.4,355.4,455.63,361.75,444.17Z" transform="translate(-178.57 -301.87)"/><path class="cls-5" d="M294.64,339.47l6.89-2-1.89,4.48-3.4,3c1.31.69,2.68,1.28,3.91,2.09s2.35,1.86,3.51,2.8c-11.24,2.71-21.37,7.86-31,14.16-1.15-2.13-5.94-.73-4.71-5.71.56-2.27-2.08-5.33-3.28-8l22.89-9.43,4.07,3.76Z" transform="translate(-178.57 -301.87)"/><path class="cls-22" d="M361.75,444.17c-6.35,11.46-15.49,20.23-26.29,27.41l-4.82.36h-2c.71-1.29,1.52-2.54,2.12-3.89a22.94,22.94,0,0,0,.88-3.1l-4-3,2.44-1.44,1.26,1.65.54-.5-1.71-1.25,16-18.59,4.07,4,5.36-6.83Z" transform="translate(-178.57 -301.87)"/><path class="cls-27" d="M228.7,401.93a42.89,42.89,0,0,1,7.82-25.2c1.29,1.49.23,5.27,4.12,4.21.26.77.51,1.54.77,2.31l2-1.59-2.73-.71-2.3-7.22q3.16-3.87,6.32-7.76c2,.29,4.06.93,6,.76,1.7-.14,3.34-1.2,5-1.85.32,0,.64,0,1,0l-1.58,4.3,4.64.55v3.37c-2.21,1.69-4.47,3.33-6.62,5.09-6,4.92-12.34,9.53-14.2,17.74l-.41,3c-1.78.48-3.57.93-5.33,1.47C231.65,400.87,230.18,401.42,228.7,401.93Z" transform="translate(-178.57 -301.87)"/><path class="cls-14" d="M292.55,430.16c-.09-1.66-.5-3.38-.18-5,.24-1.15,1.55-3.08,2.16-3,3.77.5,3.38-2.95,4.72-4.62,1.94-2.43,3.6-5.08,5.38-7.64,0-.67,0-1.34,0-2l-3-1c0-.34,0-.68,0-1l1.55-5.69c5.82-.53,5.82-.53,7.49,2.68l-3,2.07,1.72,6.46a4.65,4.65,0,0,1-1.21,1c-1.64.85-4.74,1.31-2.62,3.83a12.26,12.26,0,0,0,7.09,3.95c2.16.31,4.6-1.43,6.92-2.26,1.55,11-5.36,17.67-17,15.94C299.09,433.37,295.87,431.44,292.55,430.16ZM302,416.3c.12.28.18.66.38.77s.51-.15.77-.24l-.5-1.06Zm3.93,5.81,0-.41-.62.23c.08.11.15.29.25.31S305.82,422.16,306,422.11Z" transform="translate(-178.57 -301.87)"/><path class="cls-7" d="M355.46,364.42l-9.63-6.57-12.21-6.06-1.26-.7,0,.06c.55-2.21.42-5.31,1.83-6.36s4.32,0,6,.11c-.17-2-.33-4-.49-6,11.48,4.15,21,10.89,28,21l-5.95-.05-.22-.17.17.22c1.83,4.54-2.7,4.23-4.55,6l-.31-.06-.1-.31c0-.84,0-1.69,0-2.54Z" transform="translate(-178.57 -301.87)"/><path class="cls-27" d="M227.62,362.94C221,372,217.69,382.42,215,393.12a9.61,9.61,0,0,0-1.71.13c-.47,5.3-3.83,3.58-5.65,3.3l-5.21-10.69,10.05-22.17c1.89.51,3.84,1.6,5.66,1.42C221.34,364.79,224.46,363.7,227.62,362.94Z" transform="translate(-178.57 -301.87)"/><path class="cls-10" d="M369.88,474.23c-7.14,5.93-14,12.27-21.53,17.64-4.62,3.28-10.3,5.07-15.5,7.53l.42-10.88-.06.12,1.41-.6a99,99,0,0,0,27.65-19.22l3.37.13h0C364.08,473.09,366.93,473.7,369.88,474.23Z" transform="translate(-178.57 -301.87)"/><path class="cls-26" d="M339.64,338.94c.16,1.95.32,3.91.49,6-1.64-.1-4.57-1.14-6-.11s-1.28,4.15-1.83,6.36l-25.75-1.5c.27-3.13.09-5.84-4.17-6-.94,0-1.85-1.14-2.78-1.75l1.89-4.48L318.64,336c0,2.44-.1,4.87,0,7.3a1.91,1.91,0,0,0,1.16,1.41c.65.12,1.81-.11,2-.56,1.37-2.66,2.54-5.42,3.78-8.15Z" transform="translate(-178.57 -301.87)"/><path class="cls-21" d="M263.64,460.92l-10.06,4.15a77.44,77.44,0,0,1-18-27.95c1.32-1.09,2.49-2.55,4-3.17a39.27,39.27,0,0,1,6.61-1.56l0,.1c.14.49.28,1,.41,1.45,2.36,4.8,4.34,9.83,7.17,14.32S260.31,456.72,263.64,460.92Z" transform="translate(-178.57 -301.87)"/><path class="cls-24" d="M306.59,349.65l25.75,1.5,0-.06,1.26.7,12.21,6.06c-1.62-.25-3.36-.2-4.84-.81-21.51-8.8-42.19-6.38-61.23,6.14-12,7.87-22.76,17.56-34,26.51-1,.78-1.5,2.15-2.23,3.24l-4.62,3c1.86-8.21,8.24-12.82,14.2-17.74,2.15-1.76,4.41-3.4,6.62-5.09l7.09-5.1,5.88-4c9.61-6.3,19.74-11.45,31-14.16Z" transform="translate(-178.57 -301.87)"/><path class="cls-17" d="M333.27,488.52l-.42,10.88-4.79,1.68-1.4.74-21,5.25q-1.53-1.56-3.05-3.13c-7.19-.14-9.82-2.44-9-7.86l31-4.2L322.82,497l6.16-1.08-1-5.27Z" transform="translate(-178.57 -301.87)"/><path class="cls-14" d="M268.49,421c-4.5-.32-8.78.27-12.55,3q-.09-11-.19-22l8.65,2.39,4-7.4H263.3l3.34-7,7-1.71,2,3.68a27.54,27.54,0,0,0-7.78,20Z" transform="translate(-178.57 -301.87)"/><path class="cls-29" d="M202.44,385.86l5.21,10.69c1.82.28,5.18,2,5.65-3.3a9.61,9.61,0,0,1,1.71-.13c-.18,1.62-.36,3.24-.55,4.86l-.63,1.64q-.08,8.63-.16,17.26l-3.89,1.58c-1.85-5.06-5.68-3-9.05-2.5C199.29,405.81,199.17,395.74,202.44,385.86Z" transform="translate(-178.57 -301.87)"/><path class="cls-26" d="M227.62,362.94c-3.16.76-6.28,1.85-9.47,2.17-1.82.18-3.77-.91-5.66-1.42,4.24-9.33,10.67-16.58,20-21,4.16,1.26,7.26,3.3,6.17,8.42Z" transform="translate(-178.57 -301.87)"/><path class="cls-10" d="M391.54,441.94c-1.39,4.33-2.83,8.29-6.86,11.41-2.77,2.15-3.91,6.4-5.78,9.71l-8.77-5.27L376.66,443c2.26,0,5.55,1,6.53-.09,1.57-1.77,1.62-4.9,2.6-8.47l2.19-.23Z" transform="translate(-178.57 -301.87)"/><path class="cls-14" d="M200.73,416c3.37-.46,7.2-2.56,9.05,2.5l3.89-1.58a4,4,0,0,0,.84.1q2.48,10.49,4.94,21c-1,.15-2.13,0-2.89.5-2.95,1.91-4.93.06-6.2-2-1.05-1.69-1.56-4.07,1.42-5.28.61-.25,1.05-1.92.88-2.79s-1.88-1.82-1.93-1.77c-1.59,1.58-3.52,3.06-4.43,5-1.09,2.34-1.29,5.08-1.88,7.65Z" transform="translate(-178.57 -301.87)"/><path class="cls-13" d="M391.54,441.94,388,434.16l-2.19.23c-1,3.57-1,6.7-2.6,8.47-1,1.09-4.27.13-6.53.09q1.53-10,3-20c3.86,1.23,8.17-2.9,11.81,1Z" transform="translate(-178.57 -301.87)"/><path class="cls-20" d="M377.75,404l-10.95-26c3.8.68,7.72,1.76,9.85-3l8.59,22.8Z" transform="translate(-178.57 -301.87)"/><path class="cls-24" d="M267.86,412a27.54,27.54,0,0,1,7.78-20L287.76,383l1.86-1,1.2-.5,3.89-2.21c8.39-3.39,16.43-8,25.93-7.44l11.15,5.06c-6.52-.35-13.34-2.08-19.51-.77-12.76,2.72-24.11,9.26-33.86,17.9-3.4,3-5.19,7.88-7.59,12C269.7,407.88,268.84,410,267.86,412Z" transform="translate(-178.57 -301.87)"/><path class="cls-14" d="M377.75,404l7.49-6.23q3.13,13.09,6.28,26.21c-3.64-3.88-7.95.25-11.81-1Q378.74,413.44,377.75,404Z" transform="translate(-178.57 -301.87)"/><path class="cls-9" d="M376.65,374.92c-2.13,4.78-6,3.7-9.85,3l-9.74-12c1.85-1.74,6.38-1.43,4.55-6l.05-.05,5.95.05Z" transform="translate(-178.57 -301.87)"/><path class="cls-16" d="M204.42,439.3c.59-2.57.79-5.31,1.88-7.65.91-1.95,2.84-3.43,4.43-5,.05-.05,1.79,1,1.93,1.77s-.27,2.54-.88,2.79c-3,1.21-2.47,3.59-1.42,5.28,1.27,2,3.25,3.88,6.2,2,.76-.49,1.92-.35,2.89-.5,1.06,2.68,2.12,5.37,3.19,8.05-3.08.45-6.18.8-9.23,1.37-2,.37-3.87,1.06-5.8,1.61Q206,444.14,204.42,439.3Z" transform="translate(-178.57 -301.87)"/><path class="cls-13" d="M236.66,482l5.94-2.85-3.95-1.89,6.15-1.6,12.1,9.22c-3.92,0-5.13,1.64-2.43,5.86l-4.83-.75-11-2v-2c-.33-.67-.67-1.34-1-2Z" transform="translate(-178.57 -301.87)"/><path class="cls-27" d="M272.68,364l-5.88,4c-1.41-1.07-4.7-.68-3.14-4,.18-4.62-3.64-3.25-6-4h-4l-1.31-1.16,2.28-1.88.5.65-.5-.64,10.07-6.7c1.2,2.7,3.84,5.76,3.28,8C266.74,363.24,271.53,361.84,272.68,364Zm-9.08-4.61c.14-.07.34-.1.39-.21s-.06-.28-.1-.43l-.62.35Z" transform="translate(-178.57 -301.87)"/><path class="cls-29" d="M228.7,401.93c1.48-.51,3-1.06,4.45-1.51,1.76-.54,3.55-1,5.33-1.47q1.19,9.76,2.38,19.54l-1,1.9c-1.81-7.87-2.72-8.61-11.12-9.44Z" transform="translate(-178.57 -301.87)"/><path class="cls-7" d="M287.76,383l-12.12,8.92c-.76-1.39-1.52-2.78-2-3.68l-7,1.71-5.31-3.11,2.09-3c3.22,1.19,6.43,2.3,9.27-.81l1.95-.07,5-2Z" transform="translate(-178.57 -301.87)"/><path class="cls-14" d="M228.79,411c8.4.83,9.31,1.57,11.12,9.44l1-1.9a4.07,4.07,0,0,1,.86.43l1.83,7c-5.78.72-10.35-.67-12.28-6.87-.16-.49-1-.76-1.51-1.14Z" transform="translate(-178.57 -301.87)"/><path class="cls-29" d="M261.33,386.84l5.31,3.11-3.34,7h5.11l-4,7.4L255.75,402Z" transform="translate(-178.57 -301.87)"/><path class="cls-29" d="M229.76,417.93c.52.38,1.35.65,1.51,1.14,1.93,6.2,6.5,7.59,12.28,6.87l2.61,6.45a39.27,39.27,0,0,0-6.61,1.56c-1.51.62-2.68,2.08-4,3.17Z" transform="translate(-178.57 -301.87)"/><path class="cls-17" d="M370.13,457.79l8.77,5.27-5,6.54-1.13-2.45c-.79.47-2.13.8-2.28,1.43a36.43,36.43,0,0,0-.59,5.65h0c-2.95-.53-5.8-1.14-4.24-5.29l.23-.77-.23.78-3.37-.13q2.67-3.44,5.35-6.88l1.28-1.42Z" transform="translate(-178.57 -301.87)"/><path class="cls-15" d="M319.55,418c-2.32.83-4.76,2.57-6.92,2.26a12.26,12.26,0,0,1-7.09-3.95c-2.12-2.52,1-3,2.62-3.83a4.65,4.65,0,0,0,1.21-1L307.65,405c3.12-.44,4.06,1.57,4.5,4.06s1.7,4.28,4.69,3.79C317.74,414.54,318.65,416.24,319.55,418Z" transform="translate(-178.57 -301.87)"/><path class="cls-22" d="M217.65,456.93l2.43-3.2c-1.28-.32-2.55-.66-3.83-.94-2.13-.46-4.28-.88-6.42-1.32l.34-1.54,15.25,1c1.41,2.33,2.81,4.67,4.22,7-4.35,3.85-8.13.82-12-1Z" transform="translate(-178.57 -301.87)"/><path class="cls-25" d="M241.72,418.92a4.07,4.07,0,0,0-.86-.43q-1.2-9.76-2.38-19.54l.41-3,4.62-3c-.35,6.89-.67,13.78-1.08,20.66C242.33,415.38,242,417.15,241.72,418.92Z" transform="translate(-178.57 -301.87)"/><path class="cls-12" d="M253.32,332.2c-.1,1.93.19,4-.47,5.74-.38,1-2.23,1.65-3.54,2a54.23,54.23,0,0,1-6.28.93l-1.42-3Z" transform="translate(-178.57 -301.87)"/><path class="cls-7" d="M252.34,358.8l1.31,1.16,2,4.92c-1.66.65-3.3,1.71-5,1.85-2,.17-4-.47-6-.76Z" transform="translate(-178.57 -301.87)"/><path class="cls-27" d="M272.69,383c-2.84,3.11-6.05,2-9.27.81l7.46-8.25,1.77,3.35C272.66,380.29,272.68,381.66,272.69,383Z" transform="translate(-178.57 -301.87)"/><path class="cls-9" d="M325.63,336c-1.24,2.73-2.41,5.49-3.78,8.15-.23.45-1.39.68-2,.56a1.91,1.91,0,0,1-1.16-1.41c-.11-2.43,0-4.86,0-7.3h7Z" transform="translate(-178.57 -301.87)"/><path class="cls-27" d="M331.79,362.85h-7.71l.42.73L320.63,366l-.16-.18.17.17c0,.67,0,1.35,0,2h-4.32l5.31-7.93Z" transform="translate(-178.57 -301.87)"/><path class="cls-13" d="M316.84,412.84c-3,.49-4.22-1.15-4.69-3.79s-1.38-4.5-4.5-4.06l3-2.07L314.2,404l.57,3Z" transform="translate(-178.57 -301.87)"/><path class="cls-10" d="M328,490.64l1,5.27L322.82,497l1.82-5.11Z" transform="translate(-178.57 -301.87)"/><path class="cls-21" d="M323.63,442.94l6.15,3.07-5.1,5Z" transform="translate(-178.57 -301.87)"/><path class="cls-25" d="M314.77,407l-.57-3,7.25,0,3.23,2.88Z" transform="translate(-178.57 -301.87)"/><path class="cls-20" d="M294.64,339.47l-3,5.09-4.07-3.76Z" transform="translate(-178.57 -301.87)"/><path class="cls-10" d="M226.65,482l9,1.84-4.48,3.31Z" transform="translate(-178.57 -301.87)"/><path class="cls-13" d="M369.89,474.23a36.43,36.43,0,0,1,.59-5.65c.15-.63,1.49-1,2.28-1.43l1.13,2.45Z" transform="translate(-178.57 -301.87)"/><path class="cls-9" d="M238.33,373.73l2.3,7.22h0c-3.89,1.06-2.83-2.72-4.12-4.21C237.13,375.73,237.73,374.73,238.33,373.73Z" transform="translate(-178.57 -301.87)"/><path class="cls-15" d="M356.31,384l-2.56-3.3Z" transform="translate(-178.57 -301.87)"/><path class="cls-9" d="M355.46,364.42l1.15-1.39c0,.85,0,1.7,0,2.54Z" transform="translate(-178.57 -301.87)"/><path class="cls-15" d="M358,386.8l-1.27-1.91Z" transform="translate(-178.57 -301.87)"/><path class="cls-26" d="M322.65,336h0Z" transform="translate(-178.57 -301.87)"/><path class="cls-10" d="M326.66,501.82l1.4-.74Z" transform="translate(-178.57 -301.87)"/><path class="cls-29" d="M246.59,433.94c-.13-.48-.27-1-.41-1.45C246.32,433,246.46,433.46,246.59,433.94Z" transform="translate(-178.57 -301.87)"/><path class="cls-10" d="M368.9,460.52l-1.28,1.42Z" transform="translate(-178.57 -301.87)"/><path class="cls-17" d="M334.62,488l-1.41.6Z" transform="translate(-178.57 -301.87)"/><path class="cls-27" d="M213.83,399.62l.63-1.64Z" transform="translate(-178.57 -301.87)"/><path class="cls-2" d="M252.63,312l2-2c.33,2.94.67,5.88,1,8.83l-5.06-.63C250.46,315.84,249.42,313.18,252.63,312Z" transform="translate(-178.57 -301.87)"/><path class="cls-4" d="M372.48,497.92l3,5.14,1.33-1.09-5.13,2-4.82-4.09Z" transform="translate(-178.57 -301.87)"/><polygon class="cls-1" points="196.01 212.11 196.22 211.93 196.03 212.13 196.01 212.11"/><polygon class="cls-2" points="66.09 17.06 66.26 17.28 66.04 17.11 66.09 17.06"/><path class="cls-3" d="M381.68,327.92h0Z" transform="translate(-178.57 -301.87)"/><path class="cls-10" d="M238.64,488l11,2v2l-5,2C241,493.57,238.52,492.07,238.64,488Z" transform="translate(-178.57 -301.87)"/><path class="cls-13" d="M244.66,493.93l5-2,6.66,1.34-5.77,4.42Z" transform="translate(-178.57 -301.87)"/><path class="cls-10" d="M237.64,484c.33.66.67,1.33,1,2C238.31,485.28,238,484.61,237.64,484Z" transform="translate(-178.57 -301.87)"/><path class="cls-10" d="M234,489.47l.29-.36a4.37,4.37,0,0,1-.18.46Z" transform="translate(-178.57 -301.87)"/><path class="cls-22" d="M332.73,473.17l-2,1.12c0-.78-.09-1.56-.13-2.35Z" transform="translate(-178.57 -301.87)"/><path class="cls-15" d="M354.65,392.94c.08-.9.16-1.8.25-2.7l1.08-.17c.22,1,.43,1.92.65,2.88Z" transform="translate(-178.57 -301.87)"/><path class="cls-29" d="M321.45,404l-7.25,0-3.53-1.09c-1.67-3.21-1.67-3.21-7.49-2.68l-1.55,5.69-2,.05c.54-4.23-2.4-3.73-5.61-3.3.76-1.61,1.26-2.68,1.77-3.75l-3.25-1.31c3.39-3.39,6-7.17,11.09-3.68l-1.37,1.84,3.38,1.17h2l10-3h0A25.92,25.92,0,0,0,322,393c.41-.14.43-1.34.62-2.06,1,1.26,2.64,2.4,2.93,3.81.32,1.59-.55,3.42-.9,5.15.56.77,1.11,1.54,1.92,2.64Z" transform="translate(-178.57 -301.87)"/><path class="cls-16" d="M317.64,394l-10,3C310,392.55,313.59,392.57,317.64,394Z" transform="translate(-178.57 -301.87)"/><path class="cls-29" d="M298.63,409.94c-3-.39-5.55-1.13-3.56-5.47l3.58,2.47C298.64,407.94,298.64,408.94,298.63,409.94Z" transform="translate(-178.57 -301.87)"/><path class="cls-16" d="M322.61,391c-.19.72-.21,1.92-.62,2.06a25.92,25.92,0,0,1-4.34.91Z" transform="translate(-178.57 -301.87)"/><path class="cls-20" d="M298.63,409.94c0-1,0-2,0-3l1-1,2-.05c0,.34,0,.68,0,1Z" transform="translate(-178.57 -301.87)"/><path class="cls-16" d="M305.65,397l-3.38-1.17,1.37-1.84Z" transform="translate(-178.57 -301.87)"/><path class="cls-14" d="M297.32,412.78c.14,0,.28-.16.39-.13s.17.2.25.3l-.61.23Z" transform="translate(-178.57 -301.87)"/><path class="cls-20" d="M304.64,407.94c0,.67,0,1.34,0,2C304.63,409.28,304.64,408.61,304.64,407.94Z" transform="translate(-178.57 -301.87)"/><path class="cls-12" d="M272.69,383c0-1.36,0-2.73,0-4.09,6.06-1.25,11.87-1.07,17,3l-1.86,1L279.64,381c-2.6-1.68-4.21-.88-5,2Z" transform="translate(-178.57 -301.87)"/><path class="cls-27" d="M294.71,379.25l-3.89,2.21c-.48-1.88-.95-3.75-1.49-5.89C292.74,374.68,294.38,376,294.71,379.25Z" transform="translate(-178.57 -301.87)"/><path class="cls-27" d="M320.64,368.91l1.69.3v.48l-1.68.23Z" transform="translate(-178.57 -301.87)"/><polygon class="cls-22" points="39.05 155.09 38.87 154.89 39.07 155.07 39.05 155.09"/><path class="cls-10" d="M332.73,473.17l-2.09-1.23,4.82-.36Z" transform="translate(-178.57 -301.87)"/><path class="cls-9" d="M306.59,349.65l-2.93.16c-1.16-.94-2.27-2-3.51-2.8s-2.6-1.4-3.91-2.09l3.4-3c.93.61,1.84,1.72,2.78,1.75C306.68,343.81,306.86,346.52,306.59,349.65Z" transform="translate(-178.57 -301.87)"/><path class="cls-10" d="M330.16,460.38l1.71,1.25-.54.5-1.26-1.65A.81.81,0,0,1,330.16,460.38Z" transform="translate(-178.57 -301.87)"/><path class="cls-7" d="M263.66,364c-1.56,3.37,1.73,3,3.14,4l-7.09,5.1v-3.37l-4.64-.55c.62-1.7,1.1-3,1.58-4.3C258.48,360.83,261.08,362.51,263.66,364Z" transform="translate(-178.57 -301.87)"/><path class="cls-9" d="M263.66,364c-2.58-1.46-5.18-3.14-7,.93-.32,0-.64,0-1,0l-2-4.92h4C260,360.72,263.84,359.35,263.66,364Z" transform="translate(-178.57 -301.87)"/><path class="cls-9" d="M240.63,381l2.73.71-2,1.59c-.26-.77-.51-1.54-.77-2.31Z" transform="translate(-178.57 -301.87)"/><path class="cls-15" d="M302,416.3l.65-.53.5,1.06c-.26.09-.61.33-.77.24S302.14,416.58,302,416.3Z" transform="translate(-178.57 -301.87)"/><path class="cls-15" d="M306,422.11c-.13.05-.28.16-.39.13s-.17-.2-.25-.31l.62-.23Z" transform="translate(-178.57 -301.87)"/><polygon class="cls-9" points="183.03 58.1 182.86 57.88 183.08 58.05 183.03 58.1"/><path class="cls-26" d="M333.62,351.79l-1.26-.7Z" transform="translate(-178.57 -301.87)"/><path class="cls-9" d="M263.6,359.36l-.33-.29.62-.35c0,.15.14.32.1.43S263.74,359.29,263.6,359.36Z" transform="translate(-178.57 -301.87)"/><path class="cls-7" d="M254.62,356.93l.5.64-.5-.65Z" transform="translate(-178.57 -301.87)"/><path class="cls-7" d="M257.64,360h0Z" transform="translate(-178.57 -301.87)"/><path class="cls-27" d="M274.64,383c.79-2.88,2.4-3.68,5-2Z" transform="translate(-178.57 -301.87)"/><path class="cls-10" d="M365.64,469l.23-.78-.23.77Z" transform="translate(-178.57 -301.87)"/><polygon class="cls-20" points="142.07 64.07 141.89 63.91 142.06 64.09 142.07 64.07"/></svg>